<?xml version="1.0" encoding="UTF-8" standalone="no"?>
<!DOCTYPE svg PUBLIC "-//W3C//DTD SVG 1.1//EN"
 "http://www.w3.org/Graphics/SVG/1.1/DTD/svg11.dtd">
<!-- Generated by graphviz version 2.44.0 (20200408.0750)
 -->
<!-- Pages: 1 -->
<svg width="1355pt" height="548pt"
 viewBox="0.00 0.00 1355.07 548.00" xmlns="http://www.w3.org/2000/svg" xmlns:xlink="http://www.w3.org/1999/xlink">
<g id="graph0" class="graph" transform="scale(1 1) rotate(0) translate(4 544)">
<polygon fill="white" stroke="transparent" points="-4,4 -4,-544 1351.07,-544 1351.07,4 -4,4"/>
<!-- [root] aws_db_instance.default -->
<g id="node1" class="node">
<title>[root] aws_db_instance.default</title>
<polygon fill="none" stroke="black" points="941.5,-396 791.5,-396 791.5,-360 941.5,-360 941.5,-396"/>
<text text-anchor="middle" x="866.5" y="-374.3" font-family="Times,serif" font-size="14.00">aws_db_instance.default</text>
</g>
<!-- [root] aws_db_subnet_group.default -->
<g id="node2" class="node">
<title>[root] aws_db_subnet_group.default</title>
<polygon fill="none" stroke="black" points="956,-324 777,-324 777,-288 956,-288 956,-324"/>
<text text-anchor="middle" x="866.5" y="-302.3" font-family="Times,serif" font-size="14.00">aws_db_subnet_group.default</text>
</g>
<!-- [root] aws_db_instance.default&#45;&gt;[root] aws_db_subnet_group.default -->
<g id="edge1" class="edge">
<title>[root] aws_db_instance.default&#45;&gt;[root] aws_db_subnet_group.default</title>
<path fill="none" stroke="black" d="M866.5,-359.7C866.5,-351.98 866.5,-342.71 866.5,-334.11"/>
<polygon fill="black" stroke="black" points="870,-334.1 866.5,-324.1 863,-334.1 870,-334.1"/>
</g>
<!-- [root] aws_security_group.instance&#45;bd -->
<g id="node9" class="node">
<title>[root] aws_security_group.instance&#45;bd</title>
<polygon fill="none" stroke="black" points="497,-252 306,-252 306,-216 497,-216 497,-252"/>
<text text-anchor="middle" x="401.5" y="-230.3" font-family="Times,serif" font-size="14.00">aws_security_group.instance&#45;bd</text>
</g>
<!-- [root] aws_db_instance.default&#45;&gt;[root] aws_security_group.instance&#45;bd -->
<g id="edge2" class="edge">
<title>[root] aws_db_instance.default&#45;&gt;[root] aws_security_group.instance&#45;bd</title>
<path fill="none" stroke="black" d="M791.44,-361.57C788.42,-361.02 785.43,-360.5 782.5,-360 667.5,-340.42 630.58,-367.91 522.5,-324 485.33,-308.9 449.13,-279.8 426.16,-258.99"/>
<polygon fill="black" stroke="black" points="428.33,-256.22 418.61,-252.01 423.58,-261.36 428.33,-256.22"/>
</g>
<!-- [root] aws_subnet.us&#45;east&#45;2a&#45;private&#45;ael -->
<g id="node12" class="node">
<title>[root] aws_subnet.us&#45;east&#45;2a&#45;private&#45;ael</title>
<polygon fill="none" stroke="black" points="1298.5,-252 1098.5,-252 1098.5,-216 1298.5,-216 1298.5,-252"/>
<text text-anchor="middle" x="1198.5" y="-230.3" font-family="Times,serif" font-size="14.00">aws_subnet.us&#45;east&#45;2a&#45;private&#45;ael</text>
</g>
<!-- [root] aws_db_subnet_group.default&#45;&gt;[root] aws_subnet.us&#45;east&#45;2a&#45;private&#45;ael -->
<g id="edge3" class="edge">
<title>[root] aws_db_subnet_group.default&#45;&gt;[root] aws_subnet.us&#45;east&#45;2a&#45;private&#45;ael</title>
<path fill="none" stroke="black" d="M947.29,-287.97C995.79,-277.74 1057.59,-264.71 1107.76,-254.13"/>
<polygon fill="black" stroke="black" points="1108.57,-257.54 1117.63,-252.05 1107.13,-250.69 1108.57,-257.54"/>
</g>
<!-- [root] aws_subnet.us&#45;east&#45;2b&#45;private&#45;ael -->
<g id="node14" class="node">
<title>[root] aws_subnet.us&#45;east&#45;2b&#45;private&#45;ael</title>
<polygon fill="none" stroke="black" points="881,-252 680,-252 680,-216 881,-216 881,-252"/>
<text text-anchor="middle" x="780.5" y="-230.3" font-family="Times,serif" font-size="14.00">aws_subnet.us&#45;east&#45;2b&#45;private&#45;ael</text>
</g>
<!-- [root] aws_db_subnet_group.default&#45;&gt;[root] aws_subnet.us&#45;east&#45;2b&#45;private&#45;ael -->
<g id="edge4" class="edge">
<title>[root] aws_db_subnet_group.default&#45;&gt;[root] aws_subnet.us&#45;east&#45;2b&#45;private&#45;ael</title>
<path fill="none" stroke="black" d="M845.24,-287.7C834.41,-278.88 821.08,-268.03 809.34,-258.47"/>
<polygon fill="black" stroke="black" points="811.48,-255.7 801.51,-252.1 807.06,-261.13 811.48,-255.7"/>
</g>
<!-- [root] aws_eip.nat&#45;eip&#45;1 -->
<g id="node3" class="node">
<title>[root] aws_eip.nat&#45;eip&#45;1</title>
<polygon fill="none" stroke="black" points="466,-396 353,-396 353,-360 466,-360 466,-396"/>
<text text-anchor="middle" x="409.5" y="-374.3" font-family="Times,serif" font-size="14.00">aws_eip.nat&#45;eip&#45;1</text>
</g>
<!-- [root] aws_instance.nat -->
<g id="node4" class="node">
<title>[root] aws_instance.nat</title>
<polygon fill="none" stroke="black" points="343,-324 234,-324 234,-288 343,-288 343,-324"/>
<text text-anchor="middle" x="288.5" y="-302.3" font-family="Times,serif" font-size="14.00">aws_instance.nat</text>
</g>
<!-- [root] aws_eip.nat&#45;eip&#45;1&#45;&gt;[root] aws_instance.nat -->
<g id="edge5" class="edge">
<title>[root] aws_eip.nat&#45;eip&#45;1&#45;&gt;[root] aws_instance.nat</title>
<path fill="none" stroke="black" d="M379.9,-359.88C363.93,-350.64 344.04,-339.13 326.89,-329.21"/>
<polygon fill="black" stroke="black" points="328.62,-326.17 318.21,-324.19 325.12,-332.23 328.62,-326.17"/>
</g>
<!-- [root] aws_key_pair.class_key -->
<g id="node6" class="node">
<title>[root] aws_key_pair.class_key</title>
<polygon fill="none" stroke="black" points="147,-180 0,-180 0,-144 147,-144 147,-180"/>
<text text-anchor="middle" x="73.5" y="-158.3" font-family="Times,serif" font-size="14.00">aws_key_pair.class_key</text>
</g>
<!-- [root] aws_instance.nat&#45;&gt;[root] aws_key_pair.class_key -->
<g id="edge6" class="edge">
<title>[root] aws_instance.nat&#45;&gt;[root] aws_key_pair.class_key</title>
<path fill="none" stroke="black" d="M233.9,-298.18C179.41,-290.17 101.06,-274.99 81.5,-252 67.25,-235.25 66.33,-209.76 68.34,-190.35"/>
<polygon fill="black" stroke="black" points="71.83,-190.66 69.7,-180.28 64.9,-189.73 71.83,-190.66"/>
</g>
<!-- [root] aws_security_group.nat -->
<g id="node10" class="node">
<title>[root] aws_security_group.nat</title>
<polygon fill="none" stroke="black" points="661.5,-252 515.5,-252 515.5,-216 661.5,-216 661.5,-252"/>
<text text-anchor="middle" x="588.5" y="-230.3" font-family="Times,serif" font-size="14.00">aws_security_group.nat</text>
</g>
<!-- [root] aws_instance.nat&#45;&gt;[root] aws_security_group.nat -->
<g id="edge7" class="edge">
<title>[root] aws_instance.nat&#45;&gt;[root] aws_security_group.nat</title>
<path fill="none" stroke="black" d="M343.18,-292.24C388.58,-281.65 453.89,-266.41 505.71,-254.32"/>
<polygon fill="black" stroke="black" points="506.61,-257.7 515.55,-252.02 505.02,-250.88 506.61,-257.7"/>
</g>
<!-- [root] aws_subnet.us&#45;east&#45;2a&#45;public&#45;ael -->
<g id="node13" class="node">
<title>[root] aws_subnet.us&#45;east&#45;2a&#45;public&#45;ael</title>
<polygon fill="none" stroke="black" points="288,-252 91,-252 91,-216 288,-216 288,-252"/>
<text text-anchor="middle" x="189.5" y="-230.3" font-family="Times,serif" font-size="14.00">aws_subnet.us&#45;east&#45;2a&#45;public&#45;ael</text>
</g>
<!-- [root] aws_instance.nat&#45;&gt;[root] aws_subnet.us&#45;east&#45;2a&#45;public&#45;ael -->
<g id="edge8" class="edge">
<title>[root] aws_instance.nat&#45;&gt;[root] aws_subnet.us&#45;east&#45;2a&#45;public&#45;ael</title>
<path fill="none" stroke="black" d="M264.28,-287.88C251.58,-278.89 235.84,-267.76 222.08,-258.03"/>
<polygon fill="black" stroke="black" points="224,-255.11 213.81,-252.19 219.96,-260.82 224,-255.11"/>
</g>
<!-- [root] aws_internet_gateway.ael&#45;igw -->
<g id="node5" class="node">
<title>[root] aws_internet_gateway.ael&#45;igw</title>
<polygon fill="none" stroke="black" points="1080,-252 899,-252 899,-216 1080,-216 1080,-252"/>
<text text-anchor="middle" x="989.5" y="-230.3" font-family="Times,serif" font-size="14.00">aws_internet_gateway.ael&#45;igw</text>
</g>
<!-- [root] aws_vpc.ael -->
<g id="node15" class="node">
<title>[root] aws_vpc.ael</title>
<polygon fill="none" stroke="black" points="823,-180 740,-180 740,-144 823,-144 823,-180"/>
<text text-anchor="middle" x="781.5" y="-158.3" font-family="Times,serif" font-size="14.00">aws_vpc.ael</text>
</g>
<!-- [root] aws_internet_gateway.ael&#45;igw&#45;&gt;[root] aws_vpc.ael -->
<g id="edge9" class="edge">
<title>[root] aws_internet_gateway.ael&#45;igw&#45;&gt;[root] aws_vpc.ael</title>
<path fill="none" stroke="black" d="M938.88,-215.97C906.74,-205.15 865.25,-191.18 832.94,-180.31"/>
<polygon fill="black" stroke="black" points="833.83,-176.92 823.23,-177.04 831.59,-183.55 833.83,-176.92"/>
</g>
<!-- [root] provider.aws -->
<g id="node16" class="node">
<title>[root] provider.aws</title>
<polygon fill="none" stroke="black" points="345.5,-108 266.4,-90 345.5,-72 424.6,-90 345.5,-108"/>
<text text-anchor="middle" x="345.5" y="-86.3" font-family="Times,serif" font-size="14.00">provider.aws</text>
</g>
<!-- [root] aws_key_pair.class_key&#45;&gt;[root] provider.aws -->
<g id="edge10" class="edge">
<title>[root] aws_key_pair.class_key&#45;&gt;[root] provider.aws</title>
<path fill="none" stroke="black" d="M139.69,-143.97C189.58,-131.13 256.68,-113.86 300.49,-102.58"/>
<polygon fill="black" stroke="black" points="301.47,-105.94 310.29,-100.06 299.73,-99.17 301.47,-105.94"/>
</g>
<!-- [root] aws_route_table.us&#45;east&#45;2a&#45;public&#45;ael -->
<g id="node7" class="node">
<title>[root] aws_route_table.us&#45;east&#45;2a&#45;public&#45;ael</title>
<polygon fill="none" stroke="black" points="753.5,-324 531.5,-324 531.5,-288 753.5,-288 753.5,-324"/>
<text text-anchor="middle" x="642.5" y="-302.3" font-family="Times,serif" font-size="14.00">aws_route_table.us&#45;east&#45;2a&#45;public&#45;ael</text>
</g>
<!-- [root] aws_route_table.us&#45;east&#45;2a&#45;public&#45;ael&#45;&gt;[root] aws_internet_gateway.ael&#45;igw -->
<g id="edge11" class="edge">
<title>[root] aws_route_table.us&#45;east&#45;2a&#45;public&#45;ael&#45;&gt;[root] aws_internet_gateway.ael&#45;igw</title>
<path fill="none" stroke="black" d="M726.94,-287.97C777.73,-277.72 842.49,-264.66 894.99,-254.07"/>
<polygon fill="black" stroke="black" points="895.87,-257.46 904.98,-252.05 894.49,-250.6 895.87,-257.46"/>
</g>
<!-- [root] aws_route_table_association.us&#45;east&#45;2a&#45;public&#45;ael -->
<g id="node8" class="node">
<title>[root] aws_route_table_association.us&#45;east&#45;2a&#45;public&#45;ael</title>
<polygon fill="none" stroke="black" points="773,-396 484,-396 484,-360 773,-360 773,-396"/>
<text text-anchor="middle" x="628.5" y="-374.3" font-family="Times,serif" font-size="14.00">aws_route_table_association.us&#45;east&#45;2a&#45;public&#45;ael</text>
</g>
<!-- [root] aws_route_table_association.us&#45;east&#45;2a&#45;public&#45;ael&#45;&gt;[root] aws_route_table.us&#45;east&#45;2a&#45;public&#45;ael -->
<g id="edge12" class="edge">
<title>[root] aws_route_table_association.us&#45;east&#45;2a&#45;public&#45;ael&#45;&gt;[root] aws_route_table.us&#45;east&#45;2a&#45;public&#45;ael</title>
<path fill="none" stroke="black" d="M631.96,-359.7C633.5,-351.98 635.36,-342.71 637.08,-334.11"/>
<polygon fill="black" stroke="black" points="640.55,-334.6 639.08,-324.1 633.69,-333.22 640.55,-334.6"/>
</g>
<!-- [root] aws_route_table_association.us&#45;east&#45;2a&#45;public&#45;ael&#45;&gt;[root] aws_subnet.us&#45;east&#45;2a&#45;public&#45;ael -->
<g id="edge13" class="edge">
<title>[root] aws_route_table_association.us&#45;east&#45;2a&#45;public&#45;ael&#45;&gt;[root] aws_subnet.us&#45;east&#45;2a&#45;public&#45;ael</title>
<path fill="none" stroke="black" d="M575.55,-359.87C494.19,-333.56 338.78,-283.29 252.02,-255.22"/>
<polygon fill="black" stroke="black" points="252.89,-251.83 242.3,-252.08 250.74,-258.49 252.89,-251.83"/>
</g>
<!-- [root] aws_security_group.instance&#45;bd&#45;&gt;[root] aws_vpc.ael -->
<g id="edge14" class="edge">
<title>[root] aws_security_group.instance&#45;bd&#45;&gt;[root] aws_vpc.ael</title>
<path fill="none" stroke="black" d="M497.07,-217.52C500.25,-217.01 503.4,-216.5 506.5,-216 603.36,-200.41 631.47,-204.13 730.14,-180.14"/>
<polygon fill="black" stroke="black" points="731.04,-183.52 739.91,-177.73 729.37,-176.72 731.04,-183.52"/>
</g>
<!-- [root] var.public_subnet_app_cidr -->
<g id="node17" class="node">
<title>[root] var.public_subnet_app_cidr</title>
<ellipse fill="none" stroke="black" cx="305.5" cy="-162" rx="130.78" ry="18"/>
<text text-anchor="middle" x="305.5" y="-158.3" font-family="Times,serif" font-size="14.00">[root] var.public_subnet_app_cidr</text>
</g>
<!-- [root] aws_security_group.instance&#45;bd&#45;&gt;[root] var.public_subnet_app_cidr -->
<g id="edge15" class="edge">
<title>[root] aws_security_group.instance&#45;bd&#45;&gt;[root] var.public_subnet_app_cidr</title>
<path fill="none" stroke="black" d="M377.77,-215.7C365.47,-206.73 350.29,-195.66 337.02,-185.98"/>
<polygon fill="black" stroke="black" points="338.77,-182.93 328.63,-179.86 334.64,-188.58 338.77,-182.93"/>
</g>
<!-- [root] aws_security_group.nat&#45;&gt;[root] aws_vpc.ael -->
<g id="edge16" class="edge">
<title>[root] aws_security_group.nat&#45;&gt;[root] aws_vpc.ael</title>
<path fill="none" stroke="black" d="M635.71,-215.88C664.29,-205.51 700.74,-192.29 730.05,-181.66"/>
<polygon fill="black" stroke="black" points="731.49,-184.86 739.7,-178.16 729.1,-178.28 731.49,-184.86"/>
</g>
<!-- [root] aws_security_group.nat&#45;&gt;[root] var.public_subnet_app_cidr -->
<g id="edge19" class="edge">
<title>[root] aws_security_group.nat&#45;&gt;[root] var.public_subnet_app_cidr</title>
<path fill="none" stroke="black" d="M519.63,-215.97C475.98,-205.17 419.67,-191.24 375.75,-180.38"/>
<polygon fill="black" stroke="black" points="376.56,-176.97 366.01,-177.97 374.88,-183.77 376.56,-176.97"/>
</g>
<!-- [root] var.private_subnet_bd2_cidr -->
<g id="node18" class="node">
<title>[root] var.private_subnet_bd2_cidr</title>
<ellipse fill="none" stroke="black" cx="588.5" cy="-162" rx="133.78" ry="18"/>
<text text-anchor="middle" x="588.5" y="-158.3" font-family="Times,serif" font-size="14.00">[root] var.private_subnet_bd2_cidr</text>
</g>
<!-- [root] aws_security_group.nat&#45;&gt;[root] var.private_subnet_bd2_cidr -->
<g id="edge17" class="edge">
<title>[root] aws_security_group.nat&#45;&gt;[root] var.private_subnet_bd2_cidr</title>
<path fill="none" stroke="black" d="M588.5,-215.7C588.5,-207.98 588.5,-198.71 588.5,-190.11"/>
<polygon fill="black" stroke="black" points="592,-190.1 588.5,-180.1 585,-190.1 592,-190.1"/>
</g>
<!-- [root] var.private_subnet_bd_cidr -->
<g id="node19" class="node">
<title>[root] var.private_subnet_bd_cidr</title>
<ellipse fill="none" stroke="black" cx="1198.5" cy="-162" rx="129.18" ry="18"/>
<text text-anchor="middle" x="1198.5" y="-158.3" font-family="Times,serif" font-size="14.00">[root] var.private_subnet_bd_cidr</text>
</g>
<!-- [root] aws_security_group.nat&#45;&gt;[root] var.private_subnet_bd_cidr -->
<g id="edge18" class="edge">
<title>[root] aws_security_group.nat&#45;&gt;[root] var.private_subnet_bd_cidr</title>
<path fill="none" stroke="black" d="M661.75,-217.42C664.7,-216.92 667.63,-216.44 670.5,-216 808.56,-194.82 968.28,-180.14 1075.58,-171.69"/>
<polygon fill="black" stroke="black" points="1076.1,-175.16 1085.8,-170.89 1075.56,-168.18 1076.1,-175.16"/>
</g>
<!-- [root] aws_security_group.server&#45;web -->
<g id="node11" class="node">
<title>[root] aws_security_group.server&#45;web</title>
<polygon fill="none" stroke="black" points="1335,-324 1146,-324 1146,-288 1335,-288 1335,-324"/>
<text text-anchor="middle" x="1240.5" y="-302.3" font-family="Times,serif" font-size="14.00">aws_security_group.server&#45;web</text>
</g>
<!-- [root] aws_security_group.server&#45;web&#45;&gt;[root] aws_vpc.ael -->
<g id="edge20" class="edge">
<title>[root] aws_security_group.server&#45;web&#45;&gt;[root] aws_vpc.ael</title>
<path fill="none" stroke="black" d="M1273.03,-287.98C1286.29,-279.18 1300.2,-267.09 1307.5,-252 1314.47,-237.6 1318.23,-227.87 1307.5,-216 1291.69,-198.52 962.52,-174.96 833.1,-166.34"/>
<polygon fill="black" stroke="black" points="833.25,-162.84 823.04,-165.67 832.79,-169.83 833.25,-162.84"/>
</g>
<!-- [root] aws_security_group.server&#45;web&#45;&gt;[root] var.private_subnet_bd_cidr -->
<g id="edge21" class="edge">
<title>[root] aws_security_group.server&#45;web&#45;&gt;[root] var.private_subnet_bd_cidr</title>
<path fill="none" stroke="black" d="M1296.94,-287.96C1313.94,-279.89 1330.67,-268.33 1340.5,-252 1348.75,-238.29 1349.62,-229.14 1340.5,-216 1328.64,-198.91 1310.56,-187.32 1291.23,-179.46"/>
<polygon fill="black" stroke="black" points="1292.26,-176.11 1281.67,-175.9 1289.82,-182.67 1292.26,-176.11"/>
</g>
<!-- [root] aws_subnet.us&#45;east&#45;2a&#45;private&#45;ael&#45;&gt;[root] aws_vpc.ael -->
<g id="edge22" class="edge">
<title>[root] aws_subnet.us&#45;east&#45;2a&#45;private&#45;ael&#45;&gt;[root] aws_vpc.ael</title>
<path fill="none" stroke="black" d="M1098.35,-216.19C1014.86,-202.17 899.28,-182.77 833.26,-171.69"/>
<polygon fill="black" stroke="black" points="833.55,-168.19 823.11,-169.98 832.39,-175.09 833.55,-168.19"/>
</g>
<!-- [root] aws_subnet.us&#45;east&#45;2a&#45;private&#45;ael&#45;&gt;[root] var.private_subnet_bd_cidr -->
<g id="edge23" class="edge">
<title>[root] aws_subnet.us&#45;east&#45;2a&#45;private&#45;ael&#45;&gt;[root] var.private_subnet_bd_cidr</title>
<path fill="none" stroke="black" d="M1198.5,-215.7C1198.5,-207.98 1198.5,-198.71 1198.5,-190.11"/>
<polygon fill="black" stroke="black" points="1202,-190.1 1198.5,-180.1 1195,-190.1 1202,-190.1"/>
</g>
<!-- [root] aws_subnet.us&#45;east&#45;2a&#45;public&#45;ael&#45;&gt;[root] aws_vpc.ael -->
<g id="edge24" class="edge">
<title>[root] aws_subnet.us&#45;east&#45;2a&#45;public&#45;ael&#45;&gt;[root] aws_vpc.ael</title>
<path fill="none" stroke="black" d="M288.28,-217.03C291.05,-216.67 293.79,-216.33 296.5,-216 485.81,-193.16 539.74,-218.62 729.93,-180.04"/>
<polygon fill="black" stroke="black" points="730.88,-183.42 739.97,-177.97 729.47,-176.56 730.88,-183.42"/>
</g>
<!-- [root] aws_subnet.us&#45;east&#45;2a&#45;public&#45;ael&#45;&gt;[root] var.public_subnet_app_cidr -->
<g id="edge25" class="edge">
<title>[root] aws_subnet.us&#45;east&#45;2a&#45;public&#45;ael&#45;&gt;[root] var.public_subnet_app_cidr</title>
<path fill="none" stroke="black" d="M217.88,-215.88C233.27,-206.59 252.47,-195 268.97,-185.04"/>
<polygon fill="black" stroke="black" points="271.06,-187.87 277.82,-179.71 267.45,-181.88 271.06,-187.87"/>
</g>
<!-- [root] aws_subnet.us&#45;east&#45;2b&#45;private&#45;ael&#45;&gt;[root] aws_vpc.ael -->
<g id="edge26" class="edge">
<title>[root] aws_subnet.us&#45;east&#45;2b&#45;private&#45;ael&#45;&gt;[root] aws_vpc.ael</title>
<path fill="none" stroke="black" d="M780.75,-215.7C780.86,-207.98 780.99,-198.71 781.11,-190.11"/>
<polygon fill="black" stroke="black" points="784.61,-190.15 781.26,-180.1 777.61,-190.05 784.61,-190.15"/>
</g>
<!-- [root] aws_subnet.us&#45;east&#45;2b&#45;private&#45;ael&#45;&gt;[root] var.private_subnet_bd2_cidr -->
<g id="edge27" class="edge">
<title>[root] aws_subnet.us&#45;east&#45;2b&#45;private&#45;ael&#45;&gt;[root] var.private_subnet_bd2_cidr</title>
<path fill="none" stroke="black" d="M733.53,-215.88C705.9,-205.8 670.87,-193.03 642.15,-182.56"/>
<polygon fill="black" stroke="black" points="643.27,-179.24 632.68,-179.11 640.87,-185.82 643.27,-179.24"/>
</g>
<!-- [root] aws_vpc.ael&#45;&gt;[root] provider.aws -->
<g id="edge28" class="edge">
<title>[root] aws_vpc.ael&#45;&gt;[root] provider.aws</title>
<path fill="none" stroke="black" d="M739.93,-146.2C737.1,-145.4 734.27,-144.65 731.5,-144 620.78,-117.83 488.92,-103.17 411.5,-96.19"/>
<polygon fill="black" stroke="black" points="411.68,-92.69 401.41,-95.3 411.06,-99.67 411.68,-92.69"/>
</g>
<!-- [root] var.vpc_cidr -->
<g id="node20" class="node">
<title>[root] var.vpc_cidr</title>
<ellipse fill="none" stroke="black" cx="781.5" cy="-90" rx="77.19" ry="18"/>
<text text-anchor="middle" x="781.5" y="-86.3" font-family="Times,serif" font-size="14.00">[root] var.vpc_cidr</text>
</g>
<!-- [root] aws_vpc.ael&#45;&gt;[root] var.vpc_cidr -->
<g id="edge29" class="edge">
<title>[root] aws_vpc.ael&#45;&gt;[root] var.vpc_cidr</title>
<path fill="none" stroke="black" d="M781.5,-143.7C781.5,-135.98 781.5,-126.71 781.5,-118.11"/>
<polygon fill="black" stroke="black" points="785,-118.1 781.5,-108.1 778,-118.1 785,-118.1"/>
</g>
<!-- [root] var.region -->
<g id="node24" class="node">
<title>[root] var.region</title>
<ellipse fill="none" stroke="black" cx="345.5" cy="-18" rx="68.79" ry="18"/>
<text text-anchor="middle" x="345.5" y="-14.3" font-family="Times,serif" font-size="14.00">[root] var.region</text>
</g>
<!-- [root] provider.aws&#45;&gt;[root] var.region -->
<g id="edge39" class="edge">
<title>[root] provider.aws&#45;&gt;[root] var.region</title>
<path fill="none" stroke="black" d="M345.5,-71.7C345.5,-63.98 345.5,-54.71 345.5,-46.11"/>
<polygon fill="black" stroke="black" points="349,-46.1 345.5,-36.1 342,-46.1 349,-46.1"/>
</g>
<!-- [root] meta.count&#45;boundary (count boundary fixup) -->
<g id="node21" class="node">
<title>[root] meta.count&#45;boundary (count boundary fixup)</title>
<ellipse fill="none" stroke="black" cx="943.5" cy="-450" rx="192.27" ry="18"/>
<text text-anchor="middle" x="943.5" y="-446.3" font-family="Times,serif" font-size="14.00">[root] meta.count&#45;boundary (count boundary fixup)</text>
</g>
<!-- [root] meta.count&#45;boundary (count boundary fixup)&#45;&gt;[root] aws_db_instance.default -->
<g id="edge30" class="edge">
<title>[root] meta.count&#45;boundary (count boundary fixup)&#45;&gt;[root] aws_db_instance.default</title>
<path fill="none" stroke="black" d="M924.86,-432.05C915.19,-423.26 903.22,-412.38 892.64,-402.76"/>
<polygon fill="black" stroke="black" points="894.99,-400.17 885.23,-396.03 890.28,-405.35 894.99,-400.17"/>
</g>
<!-- [root] meta.count&#45;boundary (count boundary fixup)&#45;&gt;[root] aws_eip.nat&#45;eip&#45;1 -->
<g id="edge31" class="edge">
<title>[root] meta.count&#45;boundary (count boundary fixup)&#45;&gt;[root] aws_eip.nat&#45;eip&#45;1</title>
<path fill="none" stroke="black" d="M815.15,-436.58C704.5,-425.51 552.07,-409.3 476.28,-396.15"/>
<polygon fill="black" stroke="black" points="476.57,-392.65 466.11,-394.32 475.33,-399.54 476.57,-392.65"/>
</g>
<!-- [root] meta.count&#45;boundary (count boundary fixup)&#45;&gt;[root] aws_route_table_association.us&#45;east&#45;2a&#45;public&#45;ael -->
<g id="edge32" class="edge">
<title>[root] meta.count&#45;boundary (count boundary fixup)&#45;&gt;[root] aws_route_table_association.us&#45;east&#45;2a&#45;public&#45;ael</title>
<path fill="none" stroke="black" d="M872.42,-433.2C825.82,-422.85 764.6,-409.24 715.15,-398.26"/>
<polygon fill="black" stroke="black" points="715.63,-394.78 705.11,-396.02 714.11,-401.61 715.63,-394.78"/>
</g>
<!-- [root] meta.count&#45;boundary (count boundary fixup)&#45;&gt;[root] aws_security_group.server&#45;web -->
<g id="edge33" class="edge">
<title>[root] meta.count&#45;boundary (count boundary fixup)&#45;&gt;[root] aws_security_group.server&#45;web</title>
<path fill="none" stroke="black" d="M954.82,-431.78C969.1,-411.48 995.54,-378.2 1026.5,-360 1059.52,-340.58 1099.44,-328.25 1135.81,-320.42"/>
<polygon fill="black" stroke="black" points="1136.87,-323.78 1145.96,-318.33 1135.46,-316.92 1136.87,-323.78"/>
</g>
<!-- [root] var.amis -->
<g id="node22" class="node">
<title>[root] var.amis</title>
<ellipse fill="none" stroke="black" cx="1099.5" cy="-378" rx="63.89" ry="18"/>
<text text-anchor="middle" x="1099.5" y="-374.3" font-family="Times,serif" font-size="14.00">[root] var.amis</text>
</g>
<!-- [root] meta.count&#45;boundary (count boundary fixup)&#45;&gt;[root] var.amis -->
<g id="edge34" class="edge">
<title>[root] meta.count&#45;boundary (count boundary fixup)&#45;&gt;[root] var.amis</title>
<path fill="none" stroke="black" d="M980.87,-432.23C1004.02,-421.84 1033.81,-408.48 1057.74,-397.74"/>
<polygon fill="black" stroke="black" points="1059.24,-400.9 1066.93,-393.61 1056.38,-394.51 1059.24,-400.9"/>
</g>
<!-- [root] provider.aws (close) -->
<g id="node23" class="node">
<title>[root] provider.aws (close)</title>
<ellipse fill="none" stroke="black" cx="628.5" cy="-450" rx="104.78" ry="18"/>
<text text-anchor="middle" x="628.5" y="-446.3" font-family="Times,serif" font-size="14.00">[root] provider.aws (close)</text>
</g>
<!-- [root] provider.aws (close)&#45;&gt;[root] aws_db_instance.default -->
<g id="edge35" class="edge">
<title>[root] provider.aws (close)&#45;&gt;[root] aws_db_instance.default</title>
<path fill="none" stroke="black" d="M678.97,-434.15C713.8,-423.91 760.49,-410.18 798.58,-398.98"/>
<polygon fill="black" stroke="black" points="799.96,-402.22 808.56,-396.04 797.98,-395.5 799.96,-402.22"/>
</g>
<!-- [root] provider.aws (close)&#45;&gt;[root] aws_eip.nat&#45;eip&#45;1 -->
<g id="edge36" class="edge">
<title>[root] provider.aws (close)&#45;&gt;[root] aws_eip.nat&#45;eip&#45;1</title>
<path fill="none" stroke="black" d="M581.25,-433.9C549.41,-423.72 507.06,-410.18 472.38,-399.1"/>
<polygon fill="black" stroke="black" points="473.41,-395.75 462.82,-396.04 471.28,-402.42 473.41,-395.75"/>
</g>
<!-- [root] provider.aws (close)&#45;&gt;[root] aws_route_table_association.us&#45;east&#45;2a&#45;public&#45;ael -->
<g id="edge37" class="edge">
<title>[root] provider.aws (close)&#45;&gt;[root] aws_route_table_association.us&#45;east&#45;2a&#45;public&#45;ael</title>
<path fill="none" stroke="black" d="M628.5,-431.7C628.5,-423.98 628.5,-414.71 628.5,-406.11"/>
<polygon fill="black" stroke="black" points="632,-406.1 628.5,-396.1 625,-406.1 632,-406.1"/>
</g>
<!-- [root] provider.aws (close)&#45;&gt;[root] aws_security_group.server&#45;web -->
<g id="edge38" class="edge">
<title>[root] provider.aws (close)&#45;&gt;[root] aws_security_group.server&#45;web</title>
<path fill="none" stroke="black" d="M703.17,-437.33C796.58,-422.63 945.05,-398.95 950.5,-396 969.59,-385.67 964.62,-370.71 983.5,-360 1029.65,-333.81 1087.01,-320.48 1135.82,-313.73"/>
<polygon fill="black" stroke="black" points="1136.32,-317.2 1145.78,-312.43 1135.41,-310.26 1136.32,-317.2"/>
</g>
<!-- [root] root -->
<g id="node25" class="node">
<title>[root] root</title>
<ellipse fill="none" stroke="black" cx="785.5" cy="-522" rx="47.39" ry="18"/>
<text text-anchor="middle" x="785.5" y="-518.3" font-family="Times,serif" font-size="14.00">[root] root</text>
</g>
<!-- [root] root&#45;&gt;[root] meta.count&#45;boundary (count boundary fixup) -->
<g id="edge40" class="edge">
<title>[root] root&#45;&gt;[root] meta.count&#45;boundary (count boundary fixup)</title>
<path fill="none" stroke="black" d="M815.22,-507.83C838.07,-497.71 870.08,-483.53 896.4,-471.87"/>
<polygon fill="black" stroke="black" points="898.09,-474.95 905.82,-467.7 895.26,-468.55 898.09,-474.95"/>
</g>
<!-- [root] root&#45;&gt;[root] provider.aws (close) -->
<g id="edge41" class="edge">
<title>[root] root&#45;&gt;[root] provider.aws (close)</title>
<path fill="none" stroke="black" d="M755.97,-507.83C732.79,-497.5 700.13,-482.94 673.67,-471.14"/>
<polygon fill="black" stroke="black" points="674.79,-467.81 664.23,-466.93 671.94,-474.2 674.79,-467.81"/>
</g>
</g>
</svg>
