<?xml version="1.0" encoding="UTF-8" standalone="no"?>
<!DOCTYPE svg PUBLIC "-//W3C//DTD SVG 1.1//EN"
 "http://www.w3.org/Graphics/SVG/1.1/DTD/svg11.dtd">
<!-- Generated by graphviz version 2.40.1 (0)
 -->
<!-- Title: %3 Pages: 1 -->
<svg width="1770pt" height="548pt"
 viewBox="0.00 0.00 1769.93 548.00" xmlns="http://www.w3.org/2000/svg" xmlns:xlink="http://www.w3.org/1999/xlink">
<g id="graph0" class="graph" transform="scale(1 1) rotate(0) translate(4 544)">
<title>%3</title>
<polygon fill="#ffffff" stroke="transparent" points="-4,4 -4,-544 1765.9297,-544 1765.9297,4 -4,4"/>
<!-- [root] aws_instance.server1 -->
<g id="node1" class="node">
<title>[root] aws_instance.server1</title>
<polygon fill="none" stroke="#000000" points="475.4297,-324 305.4297,-324 305.4297,-288 475.4297,-288 475.4297,-324"/>
<text text-anchor="middle" x="390.4297" y="-302.3" font-family="Times,serif" font-size="14.00" fill="#000000">aws_instance.server1</text>
</g>
<!-- [root] aws_key_pair.key_class_file -->
<g id="node4" class="node">
<title>[root] aws_key_pair.key_class_file</title>
<polygon fill="none" stroke="#000000" points="550.9297,-180 341.9297,-180 341.9297,-144 550.9297,-144 550.9297,-180"/>
<text text-anchor="middle" x="446.4297" y="-158.3" font-family="Times,serif" font-size="14.00" fill="#000000">aws_key_pair.key_class_file</text>
</g>
<!-- [root] aws_instance.server1&#45;&gt;[root] aws_key_pair.key_class_file -->
<g id="edge1" class="edge">
<title>[root] aws_instance.server1&#45;&gt;[root] aws_key_pair.key_class_file</title>
<path fill="none" stroke="#000000" d="M318.4981,-287.9056C300.7923,-279.8827 283.9195,-268.3946 273.4297,-252 264.8064,-238.5226 263.9502,-228.8895 273.4297,-216 283.1006,-202.8502 313.3512,-191.4891 345.9107,-182.6269"/>
<polygon fill="#000000" stroke="#000000" points="346.8228,-186.0061 355.6027,-180.0762 345.0411,-179.2366 346.8228,-186.0061"/>
</g>
<!-- [root] aws_security_group.sg_http -->
<g id="node9" class="node">
<title>[root] aws_security_group.sg_http</title>
<polygon fill="none" stroke="#000000" points="497.9297,-252 282.9297,-252 282.9297,-216 497.9297,-216 497.9297,-252"/>
<text text-anchor="middle" x="390.4297" y="-230.3" font-family="Times,serif" font-size="14.00" fill="#000000">aws_security_group.sg_http</text>
</g>
<!-- [root] aws_instance.server1&#45;&gt;[root] aws_security_group.sg_http -->
<g id="edge2" class="edge">
<title>[root] aws_instance.server1&#45;&gt;[root] aws_security_group.sg_http</title>
<path fill="none" stroke="#000000" d="M390.4297,-287.8314C390.4297,-280.131 390.4297,-270.9743 390.4297,-262.4166"/>
<polygon fill="#000000" stroke="#000000" points="393.9298,-262.4132 390.4297,-252.4133 386.9298,-262.4133 393.9298,-262.4132"/>
</g>
<!-- [root] aws_security_group.sg_main -->
<g id="node10" class="node">
<title>[root] aws_security_group.sg_main</title>
<polygon fill="none" stroke="#000000" points="736.9297,-252 515.9297,-252 515.9297,-216 736.9297,-216 736.9297,-252"/>
<text text-anchor="middle" x="626.4297" y="-230.3" font-family="Times,serif" font-size="14.00" fill="#000000">aws_security_group.sg_main</text>
</g>
<!-- [root] aws_instance.server1&#45;&gt;[root] aws_security_group.sg_main -->
<g id="edge3" class="edge">
<title>[root] aws_instance.server1&#45;&gt;[root] aws_security_group.sg_main</title>
<path fill="none" stroke="#000000" d="M449.6778,-287.9243C482.3612,-277.9531 523.118,-265.5188 557.2555,-255.104"/>
<polygon fill="#000000" stroke="#000000" points="558.6137,-258.3489 567.1572,-252.0831 556.5711,-251.6536 558.6137,-258.3489"/>
</g>
<!-- [root] aws_subnet.subnet_main -->
<g id="node11" class="node">
<title>[root] aws_subnet.subnet_main</title>
<polygon fill="none" stroke="#000000" points="225.9297,-252 30.9297,-252 30.9297,-216 225.9297,-216 225.9297,-252"/>
<text text-anchor="middle" x="128.4297" y="-230.3" font-family="Times,serif" font-size="14.00" fill="#000000">aws_subnet.subnet_main</text>
</g>
<!-- [root] aws_instance.server1&#45;&gt;[root] aws_subnet.subnet_main -->
<g id="edge4" class="edge">
<title>[root] aws_instance.server1&#45;&gt;[root] aws_subnet.subnet_main</title>
<path fill="none" stroke="#000000" d="M324.6542,-287.9243C288.0587,-277.8675 242.3457,-265.3052 204.2506,-254.8363"/>
<polygon fill="#000000" stroke="#000000" points="204.8022,-251.3582 194.2322,-252.0831 202.9473,-258.108 204.8022,-251.3582"/>
</g>
<!-- [root] var.ami_id -->
<g id="node16" class="node">
<title>[root] var.ami_id</title>
<polygon fill="none" stroke="#000000" points="837.9297,-252 754.9297,-252 754.9297,-216 843.9297,-216 843.9297,-246 837.9297,-252"/>
<polyline fill="none" stroke="#000000" points="837.9297,-252 837.9297,-246 "/>
<polyline fill="none" stroke="#000000" points="843.9297,-246 837.9297,-246 "/>
<text text-anchor="middle" x="799.4297" y="-230.3" font-family="Times,serif" font-size="14.00" fill="#000000">var.ami_id</text>
</g>
<!-- [root] aws_instance.server1&#45;&gt;[root] var.ami_id -->
<g id="edge5" class="edge">
<title>[root] aws_instance.server1&#45;&gt;[root] var.ami_id</title>
<path fill="none" stroke="#000000" d="M475.4971,-297.1971C545.5761,-288.9948 647.5405,-274.8796 745.0831,-251.8556"/>
<polygon fill="#000000" stroke="#000000" points="745.9016,-255.2586 754.8114,-249.5258 744.2712,-248.4511 745.9016,-255.2586"/>
</g>
<!-- [root] aws_internet_gateway.gw -->
<g id="node2" class="node">
<title>[root] aws_internet_gateway.gw</title>
<polygon fill="none" stroke="#000000" points="1411.9297,-252 1212.9297,-252 1212.9297,-216 1411.9297,-216 1411.9297,-252"/>
<text text-anchor="middle" x="1312.4297" y="-230.3" font-family="Times,serif" font-size="14.00" fill="#000000">aws_internet_gateway.gw</text>
</g>
<!-- [root] aws_vpc.main -->
<g id="node14" class="node">
<title>[root] aws_vpc.main</title>
<polygon fill="none" stroke="#000000" points="685.4297,-180 569.4297,-180 569.4297,-144 685.4297,-144 685.4297,-180"/>
<text text-anchor="middle" x="627.4297" y="-158.3" font-family="Times,serif" font-size="14.00" fill="#000000">aws_vpc.main</text>
</g>
<!-- [root] aws_internet_gateway.gw&#45;&gt;[root] aws_vpc.main -->
<g id="edge6" class="edge">
<title>[root] aws_internet_gateway.gw&#45;&gt;[root] aws_vpc.main</title>
<path fill="none" stroke="#000000" d="M1212.6786,-217.2396C1209.562,-216.8081 1206.4732,-216.3935 1203.4297,-216 1020.5684,-192.3594 803.768,-174.8555 695.7378,-166.8439"/>
<polygon fill="#000000" stroke="#000000" points="695.858,-163.3433 685.6276,-166.0983 695.3431,-170.3244 695.858,-163.3433"/>
</g>
<!-- [root] aws_key_pair.key_class_basic -->
<g id="node3" class="node">
<title>[root] aws_key_pair.key_class_basic</title>
<polygon fill="none" stroke="#000000" points="355.4297,-396 131.4297,-396 131.4297,-360 355.4297,-360 355.4297,-396"/>
<text text-anchor="middle" x="243.4297" y="-374.3" font-family="Times,serif" font-size="14.00" fill="#000000">aws_key_pair.key_class_basic</text>
</g>
<!-- [root] provider.aws -->
<g id="node15" class="node">
<title>[root] provider.aws</title>
<polygon fill="none" stroke="#000000" points="446.4297,-108 347.3912,-90 446.4297,-72 545.4682,-90 446.4297,-108"/>
<text text-anchor="middle" x="446.4297" y="-86.3" font-family="Times,serif" font-size="14.00" fill="#000000">provider.aws</text>
</g>
<!-- [root] aws_key_pair.key_class_basic&#45;&gt;[root] provider.aws -->
<g id="edge7" class="edge">
<title>[root] aws_key_pair.key_class_basic&#45;&gt;[root] provider.aws</title>
<path fill="none" stroke="#000000" d="M175.8553,-359.9091C123.4751,-341.9369 54.4331,-308.6804 21.4297,-252 -2.7233,-210.5195 -10.3003,-180.0167 21.4297,-144 43.4657,-118.987 243.0625,-102.5247 360.7245,-94.9037"/>
<polygon fill="#000000" stroke="#000000" points="361.0409,-98.3908 370.7973,-94.2599 360.5943,-91.405 361.0409,-98.3908"/>
</g>
<!-- [root] aws_key_pair.key_class_file&#45;&gt;[root] provider.aws -->
<g id="edge8" class="edge">
<title>[root] aws_key_pair.key_class_file&#45;&gt;[root] provider.aws</title>
<path fill="none" stroke="#000000" d="M446.4297,-143.8314C446.4297,-136.131 446.4297,-126.9743 446.4297,-118.4166"/>
<polygon fill="#000000" stroke="#000000" points="449.9298,-118.4132 446.4297,-108.4133 442.9298,-118.4133 449.9298,-118.4132"/>
</g>
<!-- [root] aws_route_table.r -->
<g id="node5" class="node">
<title>[root] aws_route_table.r</title>
<polygon fill="none" stroke="#000000" points="1344.9297,-324 1201.9297,-324 1201.9297,-288 1344.9297,-288 1344.9297,-324"/>
<text text-anchor="middle" x="1273.4297" y="-302.3" font-family="Times,serif" font-size="14.00" fill="#000000">aws_route_table.r</text>
</g>
<!-- [root] aws_route_table.r&#45;&gt;[root] aws_internet_gateway.gw -->
<g id="edge9" class="edge">
<title>[root] aws_route_table.r&#45;&gt;[root] aws_internet_gateway.gw</title>
<path fill="none" stroke="#000000" d="M1283.271,-287.8314C1287.6254,-279.7925 1292.8395,-270.1666 1297.6466,-261.2918"/>
<polygon fill="#000000" stroke="#000000" points="1300.7705,-262.8732 1302.4558,-252.4133 1294.6154,-259.5392 1300.7705,-262.8732"/>
</g>
<!-- [root] aws_route_table_association.table_subnet_main -->
<g id="node6" class="node">
<title>[root] aws_route_table_association.table_subnet_main</title>
<polygon fill="none" stroke="#000000" points="729.4297,-396 373.4297,-396 373.4297,-360 729.4297,-360 729.4297,-396"/>
<text text-anchor="middle" x="551.4297" y="-374.3" font-family="Times,serif" font-size="14.00" fill="#000000">aws_route_table_association.table_subnet_main</text>
</g>
<!-- [root] aws_route_table_association.table_subnet_main&#45;&gt;[root] aws_route_table.r -->
<g id="edge10" class="edge">
<title>[root] aws_route_table_association.table_subnet_main&#45;&gt;[root] aws_route_table.r</title>
<path fill="none" stroke="#000000" d="M729.4384,-360.2484C877.0319,-345.53 1080.1056,-325.2789 1191.7136,-314.149"/>
<polygon fill="#000000" stroke="#000000" points="1192.2911,-317.6088 1201.8944,-313.1337 1191.5965,-310.6434 1192.2911,-317.6088"/>
</g>
<!-- [root] aws_route_table_association.table_subnet_main&#45;&gt;[root] aws_subnet.subnet_main -->
<g id="edge11" class="edge">
<title>[root] aws_route_table_association.table_subnet_main&#45;&gt;[root] aws_subnet.subnet_main</title>
<path fill="none" stroke="#000000" d="M432.0425,-359.9563C388.5904,-351.512 339.5725,-339.7604 296.4297,-324 248.8454,-306.6171 198.0872,-277.8348 164.9718,-257.506"/>
<polygon fill="#000000" stroke="#000000" points="166.4595,-254.3101 156.1167,-252.0129 162.7694,-260.2586 166.4595,-254.3101"/>
</g>
<!-- [root] aws_route_table_association.table_subnet_main2 -->
<g id="node7" class="node">
<title>[root] aws_route_table_association.table_subnet_main2</title>
<polygon fill="none" stroke="#000000" points="1150.9297,-396 785.9297,-396 785.9297,-360 1150.9297,-360 1150.9297,-396"/>
<text text-anchor="middle" x="968.4297" y="-374.3" font-family="Times,serif" font-size="14.00" fill="#000000">aws_route_table_association.table_subnet_main2</text>
</g>
<!-- [root] aws_route_table_association.table_subnet_main2&#45;&gt;[root] aws_route_table.r -->
<g id="edge12" class="edge">
<title>[root] aws_route_table_association.table_subnet_main2&#45;&gt;[root] aws_route_table.r</title>
<path fill="none" stroke="#000000" d="M1045.0004,-359.9243C1089.7983,-349.349 1146.3326,-336.0032 1191.9504,-325.2345"/>
<polygon fill="#000000" stroke="#000000" points="1192.8784,-328.6117 1201.8067,-322.9077 1191.2701,-321.7989 1192.8784,-328.6117"/>
</g>
<!-- [root] aws_subnet.subnet_main2 -->
<g id="node12" class="node">
<title>[root] aws_subnet.subnet_main2</title>
<polygon fill="none" stroke="#000000" points="1070.4297,-324 866.4297,-324 866.4297,-288 1070.4297,-288 1070.4297,-324"/>
<text text-anchor="middle" x="968.4297" y="-302.3" font-family="Times,serif" font-size="14.00" fill="#000000">aws_subnet.subnet_main2</text>
</g>
<!-- [root] aws_route_table_association.table_subnet_main2&#45;&gt;[root] aws_subnet.subnet_main2 -->
<g id="edge13" class="edge">
<title>[root] aws_route_table_association.table_subnet_main2&#45;&gt;[root] aws_subnet.subnet_main2</title>
<path fill="none" stroke="#000000" d="M968.4297,-359.8314C968.4297,-352.131 968.4297,-342.9743 968.4297,-334.4166"/>
<polygon fill="#000000" stroke="#000000" points="971.9298,-334.4132 968.4297,-324.4133 964.9298,-334.4133 971.9298,-334.4132"/>
</g>
<!-- [root] aws_route_table_association.table_subnet_main3 -->
<g id="node8" class="node">
<title>[root] aws_route_table_association.table_subnet_main3</title>
<polygon fill="none" stroke="#000000" points="1533.9297,-396 1168.9297,-396 1168.9297,-360 1533.9297,-360 1533.9297,-396"/>
<text text-anchor="middle" x="1351.4297" y="-374.3" font-family="Times,serif" font-size="14.00" fill="#000000">aws_route_table_association.table_subnet_main3</text>
</g>
<!-- [root] aws_route_table_association.table_subnet_main3&#45;&gt;[root] aws_route_table.r -->
<g id="edge14" class="edge">
<title>[root] aws_route_table_association.table_subnet_main3&#45;&gt;[root] aws_route_table.r</title>
<path fill="none" stroke="#000000" d="M1331.747,-359.8314C1322.3246,-351.1337 1310.8896,-340.5783 1300.6501,-331.1265"/>
<polygon fill="#000000" stroke="#000000" points="1302.8281,-328.3738 1293.1061,-324.1628 1298.0802,-333.5175 1302.8281,-328.3738"/>
</g>
<!-- [root] aws_subnet.subnet_main3 -->
<g id="node13" class="node">
<title>[root] aws_subnet.subnet_main3</title>
<polygon fill="none" stroke="#000000" points="1641.4297,-324 1437.4297,-324 1437.4297,-288 1641.4297,-288 1641.4297,-324"/>
<text text-anchor="middle" x="1539.4297" y="-302.3" font-family="Times,serif" font-size="14.00" fill="#000000">aws_subnet.subnet_main3</text>
</g>
<!-- [root] aws_route_table_association.table_subnet_main3&#45;&gt;[root] aws_subnet.subnet_main3 -->
<g id="edge15" class="edge">
<title>[root] aws_route_table_association.table_subnet_main3&#45;&gt;[root] aws_subnet.subnet_main3</title>
<path fill="none" stroke="#000000" d="M1398.87,-359.8314C1424.3492,-350.0734 1455.9341,-337.977 1482.7054,-327.7242"/>
<polygon fill="#000000" stroke="#000000" points="1484.2437,-330.883 1492.3305,-324.038 1481.7401,-324.346 1484.2437,-330.883"/>
</g>
<!-- [root] aws_security_group.sg_http&#45;&gt;[root] aws_vpc.main -->
<g id="edge16" class="edge">
<title>[root] aws_security_group.sg_http&#45;&gt;[root] aws_vpc.main</title>
<path fill="none" stroke="#000000" d="M449.9289,-215.9243C483.1252,-205.8394 524.6151,-193.2348 559.1329,-182.7484"/>
<polygon fill="#000000" stroke="#000000" points="560.5856,-185.9651 569.1364,-179.7094 558.5508,-179.2674 560.5856,-185.9651"/>
</g>
<!-- [root] aws_security_group.sg_main&#45;&gt;[root] aws_vpc.main -->
<g id="edge17" class="edge">
<title>[root] aws_security_group.sg_main&#45;&gt;[root] aws_vpc.main</title>
<path fill="none" stroke="#000000" d="M626.682,-215.8314C626.789,-208.131 626.9162,-198.9743 627.035,-190.4166"/>
<polygon fill="#000000" stroke="#000000" points="630.5346,-190.4609 627.174,-180.4133 623.5353,-190.3637 630.5346,-190.4609"/>
</g>
<!-- [root] aws_subnet.subnet_main&#45;&gt;[root] aws_vpc.main -->
<g id="edge18" class="edge">
<title>[root] aws_subnet.subnet_main&#45;&gt;[root] aws_vpc.main</title>
<path fill="none" stroke="#000000" d="M226.1285,-221.8406C352.0197,-206.1609 555.3465,-180.7925 559.4297,-180 559.5309,-179.9804 559.6321,-179.9607 559.7334,-179.9409"/>
<polygon fill="#000000" stroke="#000000" points="560.2405,-183.4107 569.3097,-177.9334 558.8043,-176.5597 560.2405,-183.4107"/>
</g>
<!-- [root] var.subnet1_cidr -->
<g id="node18" class="node">
<title>[root] var.subnet1_cidr</title>
<polygon fill="none" stroke="#000000" points="317.9297,-180 188.9297,-180 188.9297,-144 323.9297,-144 323.9297,-174 317.9297,-180"/>
<polyline fill="none" stroke="#000000" points="317.9297,-180 317.9297,-174 "/>
<polyline fill="none" stroke="#000000" points="323.9297,-174 317.9297,-174 "/>
<text text-anchor="middle" x="256.4297" y="-158.3" font-family="Times,serif" font-size="14.00" fill="#000000">var.subnet1_cidr</text>
</g>
<!-- [root] aws_subnet.subnet_main&#45;&gt;[root] var.subnet1_cidr -->
<g id="edge19" class="edge">
<title>[root] aws_subnet.subnet_main&#45;&gt;[root] var.subnet1_cidr</title>
<path fill="none" stroke="#000000" d="M160.7295,-215.8314C177.2531,-206.5368 197.5483,-195.1208 215.1904,-185.1971"/>
<polygon fill="#000000" stroke="#000000" points="217.1404,-188.116 224.1402,-180.1628 213.7085,-182.015 217.1404,-188.116"/>
</g>
<!-- [root] var.subnet1_zone -->
<g id="node19" class="node">
<title>[root] var.subnet1_zone</title>
<polygon fill="none" stroke="#000000" points="164.4297,-180 30.4297,-180 30.4297,-144 170.4297,-144 170.4297,-174 164.4297,-180"/>
<polyline fill="none" stroke="#000000" points="164.4297,-180 164.4297,-174 "/>
<polyline fill="none" stroke="#000000" points="170.4297,-174 164.4297,-174 "/>
<text text-anchor="middle" x="100.4297" y="-158.3" font-family="Times,serif" font-size="14.00" fill="#000000">var.subnet1_zone</text>
</g>
<!-- [root] aws_subnet.subnet_main&#45;&gt;[root] var.subnet1_zone -->
<g id="edge20" class="edge">
<title>[root] aws_subnet.subnet_main&#45;&gt;[root] var.subnet1_zone</title>
<path fill="none" stroke="#000000" d="M121.3641,-215.8314C118.3037,-207.9617 114.6518,-198.5712 111.2615,-189.8533"/>
<polygon fill="#000000" stroke="#000000" points="114.477,-188.4647 107.5904,-180.4133 107.9529,-191.0019 114.477,-188.4647"/>
</g>
<!-- [root] aws_subnet.subnet_main2&#45;&gt;[root] aws_vpc.main -->
<g id="edge21" class="edge">
<title>[root] aws_subnet.subnet_main2&#45;&gt;[root] aws_vpc.main</title>
<path fill="none" stroke="#000000" d="M940.6975,-287.8702C925.75,-277.7738 907.1917,-264.7073 891.4297,-252 873.0654,-237.1947 873.2378,-227.1117 852.4297,-216 803.5699,-189.9085 742.071,-176.2579 695.7219,-169.2157"/>
<polygon fill="#000000" stroke="#000000" points="696.1744,-165.7448 685.7749,-167.77 695.1675,-172.672 696.1744,-165.7448"/>
</g>
<!-- [root] var.subnet2_cidr -->
<g id="node20" class="node">
<title>[root] var.subnet2_cidr</title>
<polygon fill="none" stroke="#000000" points="1029.9297,-252 900.9297,-252 900.9297,-216 1035.9297,-216 1035.9297,-246 1029.9297,-252"/>
<polyline fill="none" stroke="#000000" points="1029.9297,-252 1029.9297,-246 "/>
<polyline fill="none" stroke="#000000" points="1035.9297,-246 1029.9297,-246 "/>
<text text-anchor="middle" x="968.4297" y="-230.3" font-family="Times,serif" font-size="14.00" fill="#000000">var.subnet2_cidr</text>
</g>
<!-- [root] aws_subnet.subnet_main2&#45;&gt;[root] var.subnet2_cidr -->
<g id="edge22" class="edge">
<title>[root] aws_subnet.subnet_main2&#45;&gt;[root] var.subnet2_cidr</title>
<path fill="none" stroke="#000000" d="M968.4297,-287.8314C968.4297,-280.131 968.4297,-270.9743 968.4297,-262.4166"/>
<polygon fill="#000000" stroke="#000000" points="971.9298,-262.4132 968.4297,-252.4133 964.9298,-262.4133 971.9298,-262.4132"/>
</g>
<!-- [root] var.subnet2_zone -->
<g id="node21" class="node">
<title>[root] var.subnet2_zone</title>
<polygon fill="none" stroke="#000000" points="1188.4297,-252 1054.4297,-252 1054.4297,-216 1194.4297,-216 1194.4297,-246 1188.4297,-252"/>
<polyline fill="none" stroke="#000000" points="1188.4297,-252 1188.4297,-246 "/>
<polyline fill="none" stroke="#000000" points="1194.4297,-246 1188.4297,-246 "/>
<text text-anchor="middle" x="1124.4297" y="-230.3" font-family="Times,serif" font-size="14.00" fill="#000000">var.subnet2_zone</text>
</g>
<!-- [root] aws_subnet.subnet_main2&#45;&gt;[root] var.subnet2_zone -->
<g id="edge23" class="edge">
<title>[root] aws_subnet.subnet_main2&#45;&gt;[root] var.subnet2_zone</title>
<path fill="none" stroke="#000000" d="M1007.7951,-287.8314C1028.5664,-278.2446 1054.228,-266.4008 1076.1878,-256.2655"/>
<polygon fill="#000000" stroke="#000000" points="1077.7345,-259.4065 1085.3474,-252.038 1074.8011,-253.0508 1077.7345,-259.4065"/>
</g>
<!-- [root] aws_subnet.subnet_main3&#45;&gt;[root] aws_vpc.main -->
<g id="edge24" class="edge">
<title>[root] aws_subnet.subnet_main3&#45;&gt;[root] aws_vpc.main</title>
<path fill="none" stroke="#000000" d="M1558.3444,-287.7418C1576.5883,-267.9668 1598.8061,-236.5066 1579.4297,-216 1549.1221,-183.9245 908.6683,-167.8158 695.6489,-163.3309"/>
<polygon fill="#000000" stroke="#000000" points="695.6023,-159.8292 685.5314,-163.1199 695.4563,-166.8277 695.6023,-159.8292"/>
</g>
<!-- [root] var.subnet3_cidr -->
<g id="node22" class="node">
<title>[root] var.subnet3_cidr</title>
<polygon fill="none" stroke="#000000" points="1755.9297,-252 1626.9297,-252 1626.9297,-216 1761.9297,-216 1761.9297,-246 1755.9297,-252"/>
<polyline fill="none" stroke="#000000" points="1755.9297,-252 1755.9297,-246 "/>
<polyline fill="none" stroke="#000000" points="1761.9297,-246 1755.9297,-246 "/>
<text text-anchor="middle" x="1694.4297" y="-230.3" font-family="Times,serif" font-size="14.00" fill="#000000">var.subnet3_cidr</text>
</g>
<!-- [root] aws_subnet.subnet_main3&#45;&gt;[root] var.subnet3_cidr -->
<g id="edge25" class="edge">
<title>[root] aws_subnet.subnet_main3&#45;&gt;[root] var.subnet3_cidr</title>
<path fill="none" stroke="#000000" d="M1578.5427,-287.8314C1599.1809,-278.2446 1624.6781,-266.4008 1646.497,-256.2655"/>
<polygon fill="#000000" stroke="#000000" points="1648.0031,-259.4251 1655.5979,-252.038 1645.0541,-253.0766 1648.0031,-259.4251"/>
</g>
<!-- [root] var.subnet3_zone -->
<g id="node23" class="node">
<title>[root] var.subnet3_zone</title>
<polygon fill="none" stroke="#000000" points="1564.4297,-252 1430.4297,-252 1430.4297,-216 1570.4297,-216 1570.4297,-246 1564.4297,-252"/>
<polyline fill="none" stroke="#000000" points="1564.4297,-252 1564.4297,-246 "/>
<polyline fill="none" stroke="#000000" points="1570.4297,-246 1564.4297,-246 "/>
<text text-anchor="middle" x="1500.4297" y="-230.3" font-family="Times,serif" font-size="14.00" fill="#000000">var.subnet3_zone</text>
</g>
<!-- [root] aws_subnet.subnet_main3&#45;&gt;[root] var.subnet3_zone -->
<g id="edge26" class="edge">
<title>[root] aws_subnet.subnet_main3&#45;&gt;[root] var.subnet3_zone</title>
<path fill="none" stroke="#000000" d="M1529.5884,-287.8314C1525.234,-279.7925 1520.0199,-270.1666 1515.2128,-261.2918"/>
<polygon fill="#000000" stroke="#000000" points="1518.244,-259.5392 1510.4036,-252.4133 1512.0889,-262.8732 1518.244,-259.5392"/>
</g>
<!-- [root] aws_vpc.main&#45;&gt;[root] provider.aws -->
<g id="edge27" class="edge">
<title>[root] aws_vpc.main&#45;&gt;[root] provider.aws</title>
<path fill="none" stroke="#000000" d="M581.7558,-143.8314C552.621,-132.2419 515.1941,-117.3538 487.0879,-106.1734"/>
<polygon fill="#000000" stroke="#000000" points="488.1495,-102.829 477.564,-102.3849 485.5622,-109.3333 488.1495,-102.829"/>
</g>
<!-- [root] var.vpc_cidr -->
<g id="node24" class="node">
<title>[root] var.vpc_cidr</title>
<polygon fill="none" stroke="#000000" points="672.4297,-108 576.4297,-108 576.4297,-72 678.4297,-72 678.4297,-102 672.4297,-108"/>
<polyline fill="none" stroke="#000000" points="672.4297,-108 672.4297,-102 "/>
<polyline fill="none" stroke="#000000" points="678.4297,-102 672.4297,-102 "/>
<text text-anchor="middle" x="627.4297" y="-86.3" font-family="Times,serif" font-size="14.00" fill="#000000">var.vpc_cidr</text>
</g>
<!-- [root] aws_vpc.main&#45;&gt;[root] var.vpc_cidr -->
<g id="edge28" class="edge">
<title>[root] aws_vpc.main&#45;&gt;[root] var.vpc_cidr</title>
<path fill="none" stroke="#000000" d="M627.4297,-143.8314C627.4297,-136.131 627.4297,-126.9743 627.4297,-118.4166"/>
<polygon fill="#000000" stroke="#000000" points="630.9298,-118.4132 627.4297,-108.4133 623.9298,-118.4133 630.9298,-118.4132"/>
</g>
<!-- [root] var.region -->
<g id="node17" class="node">
<title>[root] var.region</title>
<polygon fill="none" stroke="#000000" points="484.9297,-36 401.9297,-36 401.9297,0 490.9297,0 490.9297,-30 484.9297,-36"/>
<polyline fill="none" stroke="#000000" points="484.9297,-36 484.9297,-30 "/>
<polyline fill="none" stroke="#000000" points="490.9297,-30 484.9297,-30 "/>
<text text-anchor="middle" x="446.4297" y="-14.3" font-family="Times,serif" font-size="14.00" fill="#000000">var.region</text>
</g>
<!-- [root] provider.aws&#45;&gt;[root] var.region -->
<g id="edge39" class="edge">
<title>[root] provider.aws&#45;&gt;[root] var.region</title>
<path fill="none" stroke="#000000" d="M446.4297,-71.8314C446.4297,-64.131 446.4297,-54.9743 446.4297,-46.4166"/>
<polygon fill="#000000" stroke="#000000" points="449.9298,-46.4132 446.4297,-36.4133 442.9298,-46.4133 449.9298,-46.4132"/>
</g>
<!-- [root] meta.count&#45;boundary (EachMode fixup) -->
<g id="node25" class="node">
<title>[root] meta.count&#45;boundary (EachMode fixup)</title>
<ellipse fill="none" stroke="#000000" cx="467.4297" cy="-450" rx="222.8605" ry="18"/>
<text text-anchor="middle" x="467.4297" y="-446.3" font-family="Times,serif" font-size="14.00" fill="#000000">[root] meta.count&#45;boundary (EachMode fixup)</text>
</g>
<!-- [root] meta.count&#45;boundary (EachMode fixup)&#45;&gt;[root] aws_instance.server1 -->
<g id="edge29" class="edge">
<title>[root] meta.count&#45;boundary (EachMode fixup)&#45;&gt;[root] aws_instance.server1</title>
<path fill="none" stroke="#000000" d="M323.2893,-436.233C234.8593,-426.2899 136.0031,-411.8632 122.4297,-396 112.0275,-383.843 112.2948,-372.3807 122.4297,-360 144.1989,-333.407 227.0995,-319.6205 295.0028,-312.6614"/>
<polygon fill="#000000" stroke="#000000" points="295.7232,-316.1075 305.3314,-311.6429 295.0361,-309.1413 295.7232,-316.1075"/>
</g>
<!-- [root] meta.count&#45;boundary (EachMode fixup)&#45;&gt;[root] aws_key_pair.key_class_basic -->
<g id="edge30" class="edge">
<title>[root] meta.count&#45;boundary (EachMode fixup)&#45;&gt;[root] aws_key_pair.key_class_basic</title>
<path fill="none" stroke="#000000" d="M412.9196,-432.4789C381.685,-422.4392 342.2661,-409.7688 309.3052,-399.1743"/>
<polygon fill="#000000" stroke="#000000" points="310.3384,-395.8301 299.7471,-396.102 308.1963,-402.4943 310.3384,-395.8301"/>
</g>
<!-- [root] meta.count&#45;boundary (EachMode fixup)&#45;&gt;[root] aws_route_table_association.table_subnet_main -->
<g id="edge31" class="edge">
<title>[root] meta.count&#45;boundary (EachMode fixup)&#45;&gt;[root] aws_route_table_association.table_subnet_main</title>
<path fill="none" stroke="#000000" d="M488.6264,-431.8314C498.8731,-423.0485 511.33,-412.3712 522.4394,-402.8489"/>
<polygon fill="#000000" stroke="#000000" points="524.9249,-405.3282 530.2397,-396.1628 520.3694,-400.0134 524.9249,-405.3282"/>
</g>
<!-- [root] meta.count&#45;boundary (EachMode fixup)&#45;&gt;[root] aws_route_table_association.table_subnet_main2 -->
<g id="edge32" class="edge">
<title>[root] meta.count&#45;boundary (EachMode fixup)&#45;&gt;[root] aws_route_table_association.table_subnet_main2</title>
<path fill="none" stroke="#000000" d="M576.7572,-434.2883C651.9968,-423.4754 752.4649,-409.0369 832.8082,-397.4905"/>
<polygon fill="#000000" stroke="#000000" points="833.6026,-400.9124 843.003,-396.0254 832.6068,-393.9836 833.6026,-400.9124"/>
</g>
<!-- [root] meta.count&#45;boundary (EachMode fixup)&#45;&gt;[root] aws_route_table_association.table_subnet_main3 -->
<g id="edge33" class="edge">
<title>[root] meta.count&#45;boundary (EachMode fixup)&#45;&gt;[root] aws_route_table_association.table_subnet_main3</title>
<path fill="none" stroke="#000000" d="M628.1754,-437.5198C811.7061,-423.2618 1094.0064,-401.3005 1158.6134,-396.0351"/>
<polygon fill="#000000" stroke="#000000" points="1159.0871,-399.508 1168.7632,-395.1926 1158.5079,-392.5319 1159.0871,-399.508"/>
</g>
<!-- [root] provider.aws (close) -->
<g id="node26" class="node">
<title>[root] provider.aws (close)</title>
<ellipse fill="none" stroke="#000000" cx="840.4297" cy="-450" rx="131.8766" ry="18"/>
<text text-anchor="middle" x="840.4297" y="-446.3" font-family="Times,serif" font-size="14.00" fill="#000000">[root] provider.aws (close)</text>
</g>
<!-- [root] provider.aws (close)&#45;&gt;[root] aws_instance.server1 -->
<g id="edge34" class="edge">
<title>[root] provider.aws (close)&#45;&gt;[root] aws_instance.server1</title>
<path fill="none" stroke="#000000" d="M818.5388,-432.0587C806.0511,-421.6932 790.1926,-408.3071 776.4297,-396 759.0877,-380.4923 759.3154,-370.2481 738.4297,-360 695.1356,-338.7566 573.0517,-323.189 485.723,-314.3689"/>
<polygon fill="#000000" stroke="#000000" points="485.818,-310.8611 475.5204,-313.353 485.1244,-317.8267 485.818,-310.8611"/>
</g>
<!-- [root] provider.aws (close)&#45;&gt;[root] aws_key_pair.key_class_basic -->
<g id="edge35" class="edge">
<title>[root] provider.aws (close)&#45;&gt;[root] aws_key_pair.key_class_basic</title>
<path fill="none" stroke="#000000" d="M744.8953,-437.5427C729.6928,-435.6357 714.1351,-433.7286 699.4297,-432 553.9028,-414.8934 514.636,-415.0075 365.4641,-396.1049"/>
<polygon fill="#000000" stroke="#000000" points="365.8395,-392.6245 355.4772,-394.8319 364.9543,-399.5683 365.8395,-392.6245"/>
</g>
<!-- [root] provider.aws (close)&#45;&gt;[root] aws_route_table_association.table_subnet_main -->
<g id="edge36" class="edge">
<title>[root] provider.aws (close)&#45;&gt;[root] aws_route_table_association.table_subnet_main</title>
<path fill="none" stroke="#000000" d="M777.0074,-434.1993C734.9024,-423.7095 679.2184,-409.8366 633.7108,-398.4991"/>
<polygon fill="#000000" stroke="#000000" points="634.4167,-395.068 623.8671,-396.0467 632.7244,-401.8604 634.4167,-395.068"/>
</g>
<!-- [root] provider.aws (close)&#45;&gt;[root] aws_route_table_association.table_subnet_main2 -->
<g id="edge37" class="edge">
<title>[root] provider.aws (close)&#45;&gt;[root] aws_route_table_association.table_subnet_main2</title>
<path fill="none" stroke="#000000" d="M871.742,-432.3868C888.3809,-423.0275 909.0491,-411.4016 927.0002,-401.3041"/>
<polygon fill="#000000" stroke="#000000" points="929.1042,-404.1364 936.1041,-396.1832 925.6724,-398.0353 929.1042,-404.1364"/>
</g>
<!-- [root] provider.aws (close)&#45;&gt;[root] aws_route_table_association.table_subnet_main3 -->
<g id="edge38" class="edge">
<title>[root] provider.aws (close)&#45;&gt;[root] aws_route_table_association.table_subnet_main3</title>
<path fill="none" stroke="#000000" d="M932.3764,-437.0447C1010.618,-426.0204 1124.161,-410.0222 1213.3279,-397.4586"/>
<polygon fill="#000000" stroke="#000000" points="1213.836,-400.9216 1223.2499,-396.0606 1212.8593,-393.9901 1213.836,-400.9216"/>
</g>
<!-- [root] root -->
<g id="node27" class="node">
<title>[root] root</title>
<ellipse fill="none" stroke="#000000" cx="653.4297" cy="-522" rx="58.4896" ry="18"/>
<text text-anchor="middle" x="653.4297" y="-518.3" font-family="Times,serif" font-size="14.00" fill="#000000">[root] root</text>
</g>
<!-- [root] root&#45;&gt;[root] meta.count&#45;boundary (EachMode fixup) -->
<g id="edge40" class="edge">
<title>[root] root&#45;&gt;[root] meta.count&#45;boundary (EachMode fixup)</title>
<path fill="none" stroke="#000000" d="M616.6821,-507.7751C589.8375,-497.3837 552.9767,-483.115 522.6041,-471.3578"/>
<polygon fill="#000000" stroke="#000000" points="523.581,-467.983 512.9918,-467.6369 521.054,-474.5109 523.581,-467.983"/>
</g>
<!-- [root] root&#45;&gt;[root] provider.aws (close) -->
<g id="edge41" class="edge">
<title>[root] root&#45;&gt;[root] provider.aws (close)</title>
<path fill="none" stroke="#000000" d="M690.3749,-507.7751C717.9629,-497.153 756.0731,-482.4795 786.9825,-470.5786"/>
<polygon fill="#000000" stroke="#000000" points="788.2497,-473.8412 796.3242,-466.9818 785.7344,-467.3087 788.2497,-473.8412"/>
</g>
</g>
</svg>
